<?xml version="1.0" encoding="iso-8859-1"?>
<!-- Generator: Adobe Illustrator 19.0.0, SVG Export Plug-In . SVG Version: 6.00 Build 0)  -->
<svg version="1.1" id="Capa_1" xmlns="http://www.w3.org/2000/svg" xmlns:xlink="http://www.w3.org/1999/xlink" x="0px" y="0px"
	 viewBox="0 0 512 512" style="enable-background:new 0 0 512 512;" xml:space="preserve">
<rect x="336" y="462" style="fill:#514E73;" width="166" height="40"/>
<path style="fill:#79E59B;" d="M379,262c0,14.518,0,105.386,0,120c0,22.09,17.91,40,40,40s40-17.91,40-40c0-14.518,0-105.386,0-120
	C449.321,262,388.743,262,379,262z"/>
<path style="fill:#D4E9FF;" d="M379,202v60c9.679,0,70.257,0,80,0v-60C449.321,202,388.743,202,379,202z"/>
<path style="fill:#ED4C74;" d="M256,382c0,74.73-71.31,133.51-148.9,117.29C55.678,488.54,10,443.201,10,382
	C16.94,382,249.064,382,256,382z"/>
<path style="fill:#D4E9FF;" d="M173,268.98V162c11.04,0,20-8.96,20-20c0-11.05-8.95-20-20-20c-9.127,0-72.54,0-83,0
	c-11.04,0-20,8.96-20,20c0,11.05,8.95,20,20,20v106.98C43.42,285.47,10,329.77,10,382c6.936,0,239.06,0,246,0
	C256,329.77,219.58,285.47,173,268.98z"/>
<path d="M193,412c-5.52,0-10,4.48-10,10s4.48,10,10,10s10-4.48,10-10S198.52,412,193,412z"/>
<path d="M153,452c-5.52,0-10,4.48-10,10s4.48,10,10,10s10-4.48,10-10S158.52,452,153,452z"/>
<path d="M133,272c-5.52,0-10,4.48-10,10s4.48,10,10,10c5.52,0,10-4.48,10-10S138.52,272,133,272z"/>
<path d="M113,412c-5.52,0-10,4.48-10,10s4.48,10,10,10s10-4.48,10-10S118.52,412,113,412z"/>
<path d="M502,312h-33V212h10c5.522,0,10-4.478,10-10s-4.478-10-10-10h-50V34.45C429,15.454,413.546,0,394.55,0
	c-9.589,0-18.711,4.139-25.026,11.356l-10.552,12.062c-2.478,2.833-6.766,4.524-11.472,4.524s-8.994-1.691-11.472-4.524
	c-6.313-7.22-15.436-11.36-25.028-11.36s-18.716,4.141-25.028,11.36c-2.551,2.917-6.093,4.524-9.972,4.524s-7.421-1.607-9.972-4.524
	c-6.313-7.22-15.436-11.36-25.028-11.36s-18.716,4.141-25.028,11.36c-2.478,2.833-6.766,4.524-11.472,4.524
	s-8.994-1.691-11.474-4.526l-10.551-12.061C176.161,4.139,167.039,0,157.45,0C138.454,0,123,15.454,123,34.45V112H90
	c-16.575,0-30,13.425-30,30c0,13.036,8.361,24.152,20,28.28v91.84C31.863,282.192,0,329.496,0,382
	c0,65.765,49.248,115.412,105.054,127.078C188.273,526.477,266,463.658,266,382c0-53.51-35.163-99.987-83-119.883v-91.821
	c11.39-4.019,20-14.966,20-28.297c0-16.542-13.458-30-30-30h-30V34.45c0-7.968,6.482-14.45,14.45-14.45
	c3.822,0,7.458,1.649,9.974,4.524l10.548,12.058c6.313,7.22,15.982,11.36,26.528,11.36s20.216-4.141,26.528-11.36
	c2.551-2.917,6.093-4.524,9.972-4.524s7.421,1.607,9.972,4.524c6.313,7.22,15.436,11.36,25.028,11.36s18.716-4.141,25.028-11.36
	c2.551-2.917,6.093-4.524,9.972-4.524s7.421,1.607,9.972,4.524c6.313,7.22,15.982,11.36,26.528,11.36s20.216-4.141,26.526-11.358
	l10.549-12.058c2.517-2.877,6.152-4.526,9.975-4.526c7.968,0,14.45,6.482,14.45,14.45V192h-50c-5.522,0-10,4.478-10,10
	s4.478,10,10,10h10v100h-33c-5.522,0-10,4.478-10,10v180c0,5.522,4.478,10,10,10h166c5.522,0,10-4.478,10-10V322
	C512,316.478,507.522,312,502,312z M90,132h33v20H90c-5.514,0-10-4.486-10-10C80,136.481,84.479,132,90,132z M109.146,489.502
	C64.694,480.21,24.893,442.42,20.45,391.9h225.068C239.467,455.783,176.708,503.626,109.146,489.502z M245.466,372H143v-50
	c0-5.522-4.478-10-10-10s-10,4.478-10,10v50H20.476c3.886-42.322,32.172-79.189,72.861-93.593c3.994-1.414,6.663-5.19,6.663-9.427
	V172h23v70c0,5.522,4.478,10,10,10s10-4.478,10-10v-70h20v96.98c0,4.236,2.669,8.013,6.663,9.427
	C211.268,293.135,241.237,330.734,245.466,372z M173,132c5.514,0,10,4.486,10,10c0,5.519-4.479,10-10,10h-30v-20H173z M449,212v40
	h-20v-40H449z M409,212v40h-20v-40H409z M389,272h60v40h-60V272z M389,332h60v50c0,16.542-13.458,30-30,30s-30-13.458-30-30V332z
	 M419,432c27.57,0,50-22.43,50-50v-50h23v120H346V332h23v50C369,409.57,391.43,432,419,432z M346,492v-20h146v20H346z"/>
<g>
</g>
<g>
</g>
<g>
</g>
<g>
</g>
<g>
</g>
<g>
</g>
<g>
</g>
<g>
</g>
<g>
</g>
<g>
</g>
<g>
</g>
<g>
</g>
<g>
</g>
<g>
</g>
<g>
</g>
</svg>
